<?xml version="1.0" encoding="UTF-8" standalone="no"?><svg xmlns="http://www.w3.org/2000/svg" xmlns:xlink="http://www.w3.org/1999/xlink" contentStyleType="text/css" height="648px" preserveAspectRatio="none" style="width:1497px;height:648px;background:#FFFFFF;" version="1.1" viewBox="0 0 1497 648" width="1497px" zoomAndPan="magnify"><defs/><g><!--MD5=[052c89f948ca94e188ae58955c1b368d]
class MapUtil--><a href="java:util.MapUtil" target="_top" title="java:util.MapUtil" xlink:actuate="onRequest" xlink:href="java:util.MapUtil" xlink:show="new" xlink:title="java:util.MapUtil" xlink:type="simple"><g id="elem_MapUtil"><rect codeLine="1" fill="#F1F1F1" height="65.6094" id="MapUtil" rx="2.5" ry="2.5" style="stroke:#181818;stroke-width:0.5;" width="360" x="7" y="24.5"/><ellipse cx="159.75" cy="40.5" fill="#ADD1B2" rx="11" ry="11" style="stroke:#181818;stroke-width:1.0;"/><path d="M162.5156,36.375 Q162.6719,36.1563 162.8594,36.0469 Q163.0469,35.9375 163.2656,35.9375 Q163.6406,35.9375 163.875,36.2031 Q164.1094,36.4531 164.1094,37.0625 L164.1094,38.5156 Q164.1094,39.125 163.875,39.3906 Q163.6406,39.6563 163.2656,39.6563 Q162.9219,39.6563 162.7188,39.4531 Q162.5156,39.2656 162.4063,38.75 Q162.3594,38.3906 162.1719,38.2031 Q161.8438,37.8281 161.2344,37.6094 Q160.625,37.3906 160,37.3906 Q159.2344,37.3906 158.5938,37.7188 Q157.9688,38.0469 157.4688,38.7969 Q156.9844,39.5469 156.9844,40.5781 L156.9844,41.6719 Q156.9844,42.9063 157.875,43.7344 Q158.7656,44.5469 160.3594,44.5469 Q161.2969,44.5469 161.9531,44.2969 Q162.3438,44.1406 162.7656,43.7031 Q163.0313,43.4375 163.1719,43.3594 Q163.3281,43.2813 163.5313,43.2813 Q163.8594,43.2813 164.1094,43.5469 Q164.375,43.7969 164.375,44.1406 Q164.375,44.4844 164.0313,44.8906 Q163.5313,45.4688 162.7344,45.7969 Q161.6563,46.25 160.3594,46.25 Q158.8438,46.25 157.6406,45.625 Q156.6563,45.125 155.9688,44.0625 Q155.2813,42.9844 155.2813,41.7031 L155.2813,40.5469 Q155.2813,39.2188 155.8906,38.0781 Q156.5156,36.9219 157.6094,36.3125 Q158.7031,35.6875 159.9375,35.6875 Q160.6719,35.6875 161.3125,35.8594 Q161.9688,36.0156 162.5156,36.375 Z " fill="#000000"/><text fill="#000000" font-family="sans-serif" font-size="14" lengthAdjust="spacing" textLength="46" x="180.25" y="46.2285">MapUtil</text><line style="stroke:#181818;stroke-width:0.5;" x1="8" x2="366" y1="56.5" y2="56.5"/><line style="stroke:#181818;stroke-width:0.5;" x1="8" x2="366" y1="64.5" y2="64.5"/><ellipse cx="18" cy="78.8047" fill="#84BE84" rx="3" ry="3" style="stroke:#038048;stroke-width:1.0;"/><text fill="#000000" font-family="sans-serif" font-size="14" lengthAdjust="spacing" text-decoration="underline" textLength="334" x="27" y="83.0332">sortByDescendingValue(map: Map&lt;K,V&gt;): Map&lt;K,V&gt;</text></g></a><!--MD5=[5f0899136ed8f523b18ed05779c24112]
class Match--><a href="java:match.Match" target="_top" title="java:match.Match" xlink:actuate="onRequest" xlink:href="java:match.Match" xlink:show="new" xlink:title="java:match.Match" xlink:type="simple"><g id="elem_Match"><rect codeLine="48" fill="#F1F1F1" height="100.8281" id="Match" rx="2.5" ry="2.5" style="stroke:#181818;stroke-width:0.5;" width="383" x="402.5" y="7"/><ellipse cx="570.75" cy="23" fill="#ADD1B2" rx="11" ry="11" style="stroke:#181818;stroke-width:1.0;"/><path d="M573.5156,18.875 Q573.6719,18.6563 573.8594,18.5469 Q574.0469,18.4375 574.2656,18.4375 Q574.6406,18.4375 574.875,18.7031 Q575.1094,18.9531 575.1094,19.5625 L575.1094,21.0156 Q575.1094,21.625 574.875,21.8906 Q574.6406,22.1563 574.2656,22.1563 Q573.9219,22.1563 573.7188,21.9531 Q573.5156,21.7656 573.4063,21.25 Q573.3594,20.8906 573.1719,20.7031 Q572.8438,20.3281 572.2344,20.1094 Q571.625,19.8906 571,19.8906 Q570.2344,19.8906 569.5938,20.2188 Q568.9688,20.5469 568.4688,21.2969 Q567.9844,22.0469 567.9844,23.0781 L567.9844,24.1719 Q567.9844,25.4063 568.875,26.2344 Q569.7656,27.0469 571.3594,27.0469 Q572.2969,27.0469 572.9531,26.7969 Q573.3438,26.6406 573.7656,26.2031 Q574.0313,25.9375 574.1719,25.8594 Q574.3281,25.7813 574.5313,25.7813 Q574.8594,25.7813 575.1094,26.0469 Q575.375,26.2969 575.375,26.6406 Q575.375,26.9844 575.0313,27.3906 Q574.5313,27.9688 573.7344,28.2969 Q572.6563,28.75 571.3594,28.75 Q569.8438,28.75 568.6406,28.125 Q567.6563,27.625 566.9688,26.5625 Q566.2813,25.4844 566.2813,24.2031 L566.2813,23.0469 Q566.2813,21.7188 566.8906,20.5781 Q567.5156,19.4219 568.6094,18.8125 Q569.7031,18.1875 570.9375,18.1875 Q571.6719,18.1875 572.3125,18.3594 Q572.9688,18.5156 573.5156,18.875 Z " fill="#000000"/><text fill="#000000" font-family="sans-serif" font-size="14" lengthAdjust="spacing" textLength="38" x="591.25" y="28.7285">Match</text><line style="stroke:#181818;stroke-width:0.5;" x1="403.5" x2="784.5" y1="39" y2="39"/><line style="stroke:#181818;stroke-width:0.5;" x1="403.5" x2="784.5" y1="47" y2="47"/><ellipse cx="413.5" cy="61.3047" fill="#84BE84" rx="3" ry="3" style="stroke:#038048;stroke-width:1.0;"/><text fill="#000000" font-family="sans-serif" font-size="14" lengthAdjust="spacing" textLength="203" x="422.5" y="65.5332">Match(competition: Competition)</text><ellipse cx="413.5" cy="78.9141" fill="#84BE84" rx="3" ry="3" style="stroke:#038048;stroke-width:1.0;"/><text fill="#000000" font-family="sans-serif" font-size="14" lengthAdjust="spacing" textLength="286" x="422.5" y="83.1426">playMatch(a: Competitor, b: Competitor): void</text><ellipse cx="413.5" cy="96.5234" fill="#84BE84" rx="3" ry="3" style="stroke:#038048;stroke-width:1.0;"/><text fill="#000000" font-family="sans-serif" font-size="14" font-style="italic" lengthAdjust="spacing" textLength="357" x="422.5" y="100.752">chooseWinner(a: Competitor, b: Competitor): Competitor</text></g></a><!--MD5=[5812260e11fc0e765802a3790bb93705]
class Competition--><a href="java:competition.Competition" target="_top" title="java:competition.Competition" xlink:actuate="onRequest" xlink:href="java:competition.Competition" xlink:show="new" xlink:title="java:competition.Competition" xlink:type="simple"><g id="elem_Competition"><rect codeLine="63" fill="#F1F1F1" height="206.4844" id="Competition" rx="2.5" ry="2.5" style="stroke:#181818;stroke-width:0.5;" width="312" x="329" y="186"/><ellipse cx="443.25" cy="202" fill="#ADD1B2" rx="11" ry="11" style="stroke:#181818;stroke-width:1.0;"/><path d="M446.0156,197.875 Q446.1719,197.6563 446.3594,197.5469 Q446.5469,197.4375 446.7656,197.4375 Q447.1406,197.4375 447.375,197.7031 Q447.6094,197.9531 447.6094,198.5625 L447.6094,200.0156 Q447.6094,200.625 447.375,200.8906 Q447.1406,201.1563 446.7656,201.1563 Q446.4219,201.1563 446.2188,200.9531 Q446.0156,200.7656 445.9063,200.25 Q445.8594,199.8906 445.6719,199.7031 Q445.3438,199.3281 444.7344,199.1094 Q444.125,198.8906 443.5,198.8906 Q442.7344,198.8906 442.0938,199.2188 Q441.4688,199.5469 440.9688,200.2969 Q440.4844,201.0469 440.4844,202.0781 L440.4844,203.1719 Q440.4844,204.4063 441.375,205.2344 Q442.2656,206.0469 443.8594,206.0469 Q444.7969,206.0469 445.4531,205.7969 Q445.8438,205.6406 446.2656,205.2031 Q446.5313,204.9375 446.6719,204.8594 Q446.8281,204.7813 447.0313,204.7813 Q447.3594,204.7813 447.6094,205.0469 Q447.875,205.2969 447.875,205.6406 Q447.875,205.9844 447.5313,206.3906 Q447.0313,206.9688 446.2344,207.2969 Q445.1563,207.75 443.8594,207.75 Q442.3438,207.75 441.1406,207.125 Q440.1563,206.625 439.4688,205.5625 Q438.7813,204.4844 438.7813,203.2031 L438.7813,202.0469 Q438.7813,200.7188 439.3906,199.5781 Q440.0156,198.4219 441.1094,197.8125 Q442.2031,197.1875 443.4375,197.1875 Q444.1719,197.1875 444.8125,197.3594 Q445.4688,197.5156 446.0156,197.875 Z " fill="#000000"/><text fill="#000000" font-family="sans-serif" font-size="14" lengthAdjust="spacing" textLength="75" x="463.75" y="207.7285">Competition</text><line style="stroke:#181818;stroke-width:0.5;" x1="330" x2="640" y1="218" y2="218"/><polygon fill="none" points="340,227.3047,344,231.3047,340,235.3047,336,231.3047" style="stroke:#B38D22;stroke-width:1.0;"/><text fill="#000000" font-family="sans-serif" font-size="14" lengthAdjust="spacing" textLength="206" x="349" y="236.5332">points: Map&lt;Competitor,Integer&gt;</text><line style="stroke:#181818;stroke-width:0.5;" x1="330" x2="640" y1="243.6094" y2="243.6094"/><ellipse cx="340" cy="257.9141" fill="#84BE84" rx="3" ry="3" style="stroke:#038048;stroke-width:1.0;"/><text fill="#000000" font-family="sans-serif" font-size="14" lengthAdjust="spacing" textLength="273" x="349" y="262.1426">Competition(competitors: List&lt;Competitor&gt;)</text><ellipse cx="340" cy="275.5234" fill="#84BE84" rx="3" ry="3" style="stroke:#038048;stroke-width:1.0;"/><text fill="#000000" font-family="sans-serif" font-size="14" lengthAdjust="spacing" textLength="237" x="349" y="279.752">getPoints(): Map&lt;Competitor,Integer&gt;</text><ellipse cx="340" cy="293.1328" fill="#84BE84" rx="3" ry="3" style="stroke:#038048;stroke-width:1.0;"/><text fill="#000000" font-family="sans-serif" font-size="14" lengthAdjust="spacing" textLength="185" x="349" y="297.3613">setMatch(match: Match): void</text><ellipse cx="340" cy="310.7422" fill="#84BE84" rx="3" ry="3" style="stroke:#038048;stroke-width:1.0;"/><text fill="#000000" font-family="sans-serif" font-size="14" lengthAdjust="spacing" textLength="250" x="349" y="314.9707">addPoints(competitor: Competitor): void</text><ellipse cx="340" cy="328.3516" fill="#84BE84" rx="3" ry="3" style="stroke:#038048;stroke-width:1.0;"/><text fill="#000000" font-family="sans-serif" font-size="14" lengthAdjust="spacing" textLength="70" x="349" y="332.5801">play(): void</text><ellipse cx="340" cy="345.9609" fill="#84BE84" rx="3" ry="3" style="stroke:#038048;stroke-width:1.0;"/><text fill="#000000" font-family="sans-serif" font-size="14" lengthAdjust="spacing" textLength="225" x="349" y="350.1895">ranking(): Map&lt;Competitor,Integer&gt;</text><ellipse cx="340" cy="363.5703" fill="#84BE84" rx="3" ry="3" style="stroke:#038048;stroke-width:1.0;"/><text fill="#000000" font-family="sans-serif" font-size="14" font-style="italic" lengthAdjust="spacing" textLength="257" x="349" y="367.7988">play(competitors: List&lt;Competitor&gt;): void</text><ellipse cx="340" cy="381.1797" fill="#84BE84" rx="3" ry="3" style="stroke:#038048;stroke-width:1.0;"/><text fill="#000000" font-family="sans-serif" font-size="14" font-style="italic" lengthAdjust="spacing" textLength="286" x="349" y="385.4082">playMatch(a: Competitor, b: Competitor): void</text></g></a><!--MD5=[242873ad39b46a820750deb207da3fd9]
class NotPowerOfTwoException--><a href="java:competition.NotPowerOfTwoException" target="_top" title="java:competition.NotPowerOfTwoException" xlink:actuate="onRequest" xlink:href="java:competition.NotPowerOfTwoException" xlink:show="new" xlink:title="java:competition.NotPowerOfTwoException" xlink:type="simple"><g id="elem_NotPowerOfTwoException"><rect codeLine="12" fill="#F1F1F1" height="65.6094" id="NotPowerOfTwoException" rx="2.5" ry="2.5" style="stroke:#181818;stroke-width:0.5;" width="269" x="1093.5" y="256"/><ellipse cx="1142.75" cy="272" fill="#ADD1B2" rx="11" ry="11" style="stroke:#181818;stroke-width:1.0;"/><path d="M1145.5156,267.875 Q1145.6719,267.6563 1145.8594,267.5469 Q1146.0469,267.4375 1146.2656,267.4375 Q1146.6406,267.4375 1146.875,267.7031 Q1147.1094,267.9531 1147.1094,268.5625 L1147.1094,270.0156 Q1147.1094,270.625 1146.875,270.8906 Q1146.6406,271.1563 1146.2656,271.1563 Q1145.9219,271.1563 1145.7188,270.9531 Q1145.5156,270.7656 1145.4063,270.25 Q1145.3594,269.8906 1145.1719,269.7031 Q1144.8438,269.3281 1144.2344,269.1094 Q1143.625,268.8906 1143,268.8906 Q1142.2344,268.8906 1141.5938,269.2188 Q1140.9688,269.5469 1140.4688,270.2969 Q1139.9844,271.0469 1139.9844,272.0781 L1139.9844,273.1719 Q1139.9844,274.4063 1140.875,275.2344 Q1141.7656,276.0469 1143.3594,276.0469 Q1144.2969,276.0469 1144.9531,275.7969 Q1145.3438,275.6406 1145.7656,275.2031 Q1146.0313,274.9375 1146.1719,274.8594 Q1146.3281,274.7813 1146.5313,274.7813 Q1146.8594,274.7813 1147.1094,275.0469 Q1147.375,275.2969 1147.375,275.6406 Q1147.375,275.9844 1147.0313,276.3906 Q1146.5313,276.9688 1145.7344,277.2969 Q1144.6563,277.75 1143.3594,277.75 Q1141.8438,277.75 1140.6406,277.125 Q1139.6563,276.625 1138.9688,275.5625 Q1138.2813,274.4844 1138.2813,273.2031 L1138.2813,272.0469 Q1138.2813,270.7188 1138.8906,269.5781 Q1139.5156,268.4219 1140.6094,267.8125 Q1141.7031,267.1875 1142.9375,267.1875 Q1143.6719,267.1875 1144.3125,267.3594 Q1144.9688,267.5156 1145.5156,267.875 Z " fill="#000000"/><text fill="#000000" font-family="sans-serif" font-size="14" lengthAdjust="spacing" textLength="162" x="1163.25" y="277.7285">NotPowerOfTwoException</text><line style="stroke:#181818;stroke-width:0.5;" x1="1094.5" x2="1361.5" y1="288" y2="288"/><line style="stroke:#181818;stroke-width:0.5;" x1="1094.5" x2="1361.5" y1="296" y2="296"/><ellipse cx="1104.5" cy="310.3047" fill="#84BE84" rx="3" ry="3" style="stroke:#038048;stroke-width:1.0;"/><text fill="#000000" font-family="sans-serif" font-size="14" lengthAdjust="spacing" textLength="243" x="1113.5" y="314.5332">NotPowerOfTwoException(msg: String)</text></g></a><!--MD5=[8db60afef7a3447bbe27c5ed187fdac2]
class Exception--><g id="elem_Exception"><rect codeLine="15" fill="#F1F1F1" height="48" id="Exception" rx="2.5" ry="2.5" style="stroke:#181818;stroke-width:0.5;" width="93" x="1181.5" y="33.5"/><ellipse cx="1196.5" cy="49.5" fill="#ADD1B2" rx="11" ry="11" style="stroke:#181818;stroke-width:1.0;"/><path d="M1199.2656,45.375 Q1199.4219,45.1563 1199.6094,45.0469 Q1199.7969,44.9375 1200.0156,44.9375 Q1200.3906,44.9375 1200.625,45.2031 Q1200.8594,45.4531 1200.8594,46.0625 L1200.8594,47.5156 Q1200.8594,48.125 1200.625,48.3906 Q1200.3906,48.6563 1200.0156,48.6563 Q1199.6719,48.6563 1199.4688,48.4531 Q1199.2656,48.2656 1199.1563,47.75 Q1199.1094,47.3906 1198.9219,47.2031 Q1198.5938,46.8281 1197.9844,46.6094 Q1197.375,46.3906 1196.75,46.3906 Q1195.9844,46.3906 1195.3438,46.7188 Q1194.7188,47.0469 1194.2188,47.7969 Q1193.7344,48.5469 1193.7344,49.5781 L1193.7344,50.6719 Q1193.7344,51.9063 1194.625,52.7344 Q1195.5156,53.5469 1197.1094,53.5469 Q1198.0469,53.5469 1198.7031,53.2969 Q1199.0938,53.1406 1199.5156,52.7031 Q1199.7813,52.4375 1199.9219,52.3594 Q1200.0781,52.2813 1200.2813,52.2813 Q1200.6094,52.2813 1200.8594,52.5469 Q1201.125,52.7969 1201.125,53.1406 Q1201.125,53.4844 1200.7813,53.8906 Q1200.2813,54.4688 1199.4844,54.7969 Q1198.4063,55.25 1197.1094,55.25 Q1195.5938,55.25 1194.3906,54.625 Q1193.4063,54.125 1192.7188,53.0625 Q1192.0313,51.9844 1192.0313,50.7031 L1192.0313,49.5469 Q1192.0313,48.2188 1192.6406,47.0781 Q1193.2656,45.9219 1194.3594,45.3125 Q1195.4531,44.6875 1196.6875,44.6875 Q1197.4219,44.6875 1198.0625,44.8594 Q1198.7188,45.0156 1199.2656,45.375 Z " fill="#000000"/><text fill="#000000" font-family="sans-serif" font-size="14" lengthAdjust="spacing" textLength="61" x="1210.5" y="55.2285">Exception</text><line style="stroke:#181818;stroke-width:0.5;" x1="1182.5" x2="1273.5" y1="65.5" y2="65.5"/><line style="stroke:#181818;stroke-width:0.5;" x1="1182.5" x2="1273.5" y1="73.5" y2="73.5"/></g><!--MD5=[f65be2661e1b7f785a7faa232c0806ef]
class RandomMatch--><a href="java:match.RandomMatch" target="_top" title="java:match.RandomMatch" xlink:actuate="onRequest" xlink:href="java:match.RandomMatch" xlink:show="new" xlink:title="java:match.RandomMatch" xlink:type="simple"><g id="elem_RandomMatch"><rect codeLine="18" fill="#F1F1F1" height="83.2188" id="RandomMatch" rx="2.5" ry="2.5" style="stroke:#181818;stroke-width:0.5;" width="382" x="676" y="247.5"/><ellipse cx="817.25" cy="263.5" fill="#ADD1B2" rx="11" ry="11" style="stroke:#181818;stroke-width:1.0;"/><path d="M820.0156,259.375 Q820.1719,259.1563 820.3594,259.0469 Q820.5469,258.9375 820.7656,258.9375 Q821.1406,258.9375 821.375,259.2031 Q821.6094,259.4531 821.6094,260.0625 L821.6094,261.5156 Q821.6094,262.125 821.375,262.3906 Q821.1406,262.6563 820.7656,262.6563 Q820.4219,262.6563 820.2188,262.4531 Q820.0156,262.2656 819.9063,261.75 Q819.8594,261.3906 819.6719,261.2031 Q819.3438,260.8281 818.7344,260.6094 Q818.125,260.3906 817.5,260.3906 Q816.7344,260.3906 816.0938,260.7188 Q815.4688,261.0469 814.9688,261.7969 Q814.4844,262.5469 814.4844,263.5781 L814.4844,264.6719 Q814.4844,265.9063 815.375,266.7344 Q816.2656,267.5469 817.8594,267.5469 Q818.7969,267.5469 819.4531,267.2969 Q819.8438,267.1406 820.2656,266.7031 Q820.5313,266.4375 820.6719,266.3594 Q820.8281,266.2813 821.0313,266.2813 Q821.3594,266.2813 821.6094,266.5469 Q821.875,266.7969 821.875,267.1406 Q821.875,267.4844 821.5313,267.8906 Q821.0313,268.4688 820.2344,268.7969 Q819.1563,269.25 817.8594,269.25 Q816.3438,269.25 815.1406,268.625 Q814.1563,268.125 813.4688,267.0625 Q812.7813,265.9844 812.7813,264.7031 L812.7813,263.5469 Q812.7813,262.2188 813.3906,261.0781 Q814.0156,259.9219 815.1094,259.3125 Q816.2031,258.6875 817.4375,258.6875 Q818.1719,258.6875 818.8125,258.8594 Q819.4688,259.0156 820.0156,259.375 Z " fill="#000000"/><text fill="#000000" font-family="sans-serif" font-size="14" lengthAdjust="spacing" textLength="91" x="837.75" y="269.2285">RandomMatch</text><line style="stroke:#181818;stroke-width:0.5;" x1="677" x2="1057" y1="279.5" y2="279.5"/><line style="stroke:#181818;stroke-width:0.5;" x1="677" x2="1057" y1="287.5" y2="287.5"/><ellipse cx="687" cy="301.8047" fill="#84BE84" rx="3" ry="3" style="stroke:#038048;stroke-width:1.0;"/><text fill="#000000" font-family="sans-serif" font-size="14" lengthAdjust="spacing" textLength="256" x="696" y="306.0332">RandomMatch(competition: Competition)</text><ellipse cx="687" cy="319.4141" fill="#84BE84" rx="3" ry="3" style="stroke:#038048;stroke-width:1.0;"/><text fill="#000000" font-family="sans-serif" font-size="14" lengthAdjust="spacing" textLength="356" x="696" y="323.6426">chooseWinner(a: Competitor, b: Competitor): Competitor</text></g></a><!--MD5=[0cd4fbe304aa1adc679af9831564779d]
class League--><a href="java:competition.League" target="_top" title="java:competition.League" xlink:actuate="onRequest" xlink:href="java:competition.League" xlink:show="new" xlink:title="java:competition.League" xlink:type="simple"><g id="elem_League"><rect codeLine="25" fill="#F1F1F1" height="118.4375" id="League" rx="2.5" ry="2.5" style="stroke:#181818;stroke-width:0.5;" width="312" x="41" y="496.5"/><ellipse cx="168.75" cy="512.5" fill="#ADD1B2" rx="11" ry="11" style="stroke:#181818;stroke-width:1.0;"/><path d="M171.5156,508.375 Q171.6719,508.1563 171.8594,508.0469 Q172.0469,507.9375 172.2656,507.9375 Q172.6406,507.9375 172.875,508.2031 Q173.1094,508.4531 173.1094,509.0625 L173.1094,510.5156 Q173.1094,511.125 172.875,511.3906 Q172.6406,511.6563 172.2656,511.6563 Q171.9219,511.6563 171.7188,511.4531 Q171.5156,511.2656 171.4063,510.75 Q171.3594,510.3906 171.1719,510.2031 Q170.8438,509.8281 170.2344,509.6094 Q169.625,509.3906 169,509.3906 Q168.2344,509.3906 167.5938,509.7188 Q166.9688,510.0469 166.4688,510.7969 Q165.9844,511.5469 165.9844,512.5781 L165.9844,513.6719 Q165.9844,514.9063 166.875,515.7344 Q167.7656,516.5469 169.3594,516.5469 Q170.2969,516.5469 170.9531,516.2969 Q171.3438,516.1406 171.7656,515.7031 Q172.0313,515.4375 172.1719,515.3594 Q172.3281,515.2813 172.5313,515.2813 Q172.8594,515.2813 173.1094,515.5469 Q173.375,515.7969 173.375,516.1406 Q173.375,516.4844 173.0313,516.8906 Q172.5313,517.4688 171.7344,517.7969 Q170.6563,518.25 169.3594,518.25 Q167.8438,518.25 166.6406,517.625 Q165.6563,517.125 164.9688,516.0625 Q164.2813,514.9844 164.2813,513.7031 L164.2813,512.5469 Q164.2813,511.2188 164.8906,510.0781 Q165.5156,508.9219 166.6094,508.3125 Q167.7031,507.6875 168.9375,507.6875 Q169.6719,507.6875 170.3125,507.8594 Q170.9688,508.0156 171.5156,508.375 Z " fill="#000000"/><text fill="#000000" font-family="sans-serif" font-size="14" lengthAdjust="spacing" textLength="48" x="189.25" y="518.2285">League</text><line style="stroke:#181818;stroke-width:0.5;" x1="42" x2="352" y1="528.5" y2="528.5"/><line style="stroke:#181818;stroke-width:0.5;" x1="42" x2="352" y1="536.5" y2="536.5"/><ellipse cx="52" cy="550.8047" fill="#84BE84" rx="3" ry="3" style="stroke:#038048;stroke-width:1.0;"/><text fill="#000000" font-family="sans-serif" font-size="14" lengthAdjust="spacing" textLength="246" x="61" y="555.0332">League(competitors: List&lt;Competitor&gt;)</text><ellipse cx="52" cy="568.4141" fill="#84BE84" rx="3" ry="3" style="stroke:#038048;stroke-width:1.0;"/><text fill="#000000" font-family="sans-serif" font-size="14" lengthAdjust="spacing" textLength="258" x="61" y="572.6426">play(competitors: List&lt;Competitor&gt;): void</text><ellipse cx="52" cy="586.0234" fill="#84BE84" rx="3" ry="3" style="stroke:#038048;stroke-width:1.0;"/><text fill="#000000" font-family="sans-serif" font-size="14" lengthAdjust="spacing" textLength="286" x="61" y="590.252">playMatch(a: Competitor, b: Competitor): void</text><ellipse cx="52" cy="603.6328" fill="#84BE84" rx="3" ry="3" style="stroke:#038048;stroke-width:1.0;"/><text fill="#000000" font-family="sans-serif" font-size="14" lengthAdjust="spacing" textLength="104" x="61" y="607.8613">toString(): String</text></g></a><!--MD5=[89bc1b85bee2919638794409a9ffdf85]
class Competitor--><a href="java:competitor.Competitor" target="_top" title="java:competitor.Competitor" xlink:actuate="onRequest" xlink:href="java:competitor.Competitor" xlink:show="new" xlink:title="java:competitor.Competitor" xlink:type="simple"><g id="elem_Competitor"><rect codeLine="69" fill="#F1F1F1" height="153.6563" id="Competitor" rx="2.5" ry="2.5" style="stroke:#181818;stroke-width:0.5;" width="194" x="388" y="478.5"/><ellipse cx="446.25" cy="494.5" fill="#ADD1B2" rx="11" ry="11" style="stroke:#181818;stroke-width:1.0;"/><path d="M449.0156,490.375 Q449.1719,490.1563 449.3594,490.0469 Q449.5469,489.9375 449.7656,489.9375 Q450.1406,489.9375 450.375,490.2031 Q450.6094,490.4531 450.6094,491.0625 L450.6094,492.5156 Q450.6094,493.125 450.375,493.3906 Q450.1406,493.6563 449.7656,493.6563 Q449.4219,493.6563 449.2188,493.4531 Q449.0156,493.2656 448.9063,492.75 Q448.8594,492.3906 448.6719,492.2031 Q448.3438,491.8281 447.7344,491.6094 Q447.125,491.3906 446.5,491.3906 Q445.7344,491.3906 445.0938,491.7188 Q444.4688,492.0469 443.9688,492.7969 Q443.4844,493.5469 443.4844,494.5781 L443.4844,495.6719 Q443.4844,496.9063 444.375,497.7344 Q445.2656,498.5469 446.8594,498.5469 Q447.7969,498.5469 448.4531,498.2969 Q448.8438,498.1406 449.2656,497.7031 Q449.5313,497.4375 449.6719,497.3594 Q449.8281,497.2813 450.0313,497.2813 Q450.3594,497.2813 450.6094,497.5469 Q450.875,497.7969 450.875,498.1406 Q450.875,498.4844 450.5313,498.8906 Q450.0313,499.4688 449.2344,499.7969 Q448.1563,500.25 446.8594,500.25 Q445.3438,500.25 444.1406,499.625 Q443.1563,499.125 442.4688,498.0625 Q441.7813,496.9844 441.7813,495.7031 L441.7813,494.5469 Q441.7813,493.2188 442.3906,492.0781 Q443.0156,490.9219 444.1094,490.3125 Q445.2031,489.6875 446.4375,489.6875 Q447.1719,489.6875 447.8125,489.8594 Q448.4688,490.0156 449.0156,490.375 Z " fill="#000000"/><text fill="#000000" font-family="sans-serif" font-size="14" lengthAdjust="spacing" textLength="69" x="466.75" y="500.2285">Competitor</text><line style="stroke:#181818;stroke-width:0.5;" x1="389" x2="581" y1="510.5" y2="510.5"/><rect fill="none" height="6" style="stroke:#C82930;stroke-width:1.0;" width="6" x="396" y="521.8047"/><text fill="#000000" font-family="sans-serif" font-size="14" lengthAdjust="spacing" textLength="80" x="408" y="529.0332">name: String</text><line style="stroke:#181818;stroke-width:0.5;" x1="389" x2="581" y1="536.1094" y2="536.1094"/><ellipse cx="399" cy="550.4141" fill="#84BE84" rx="3" ry="3" style="stroke:#038048;stroke-width:1.0;"/><text fill="#000000" font-family="sans-serif" font-size="14" lengthAdjust="spacing" textLength="159" x="408" y="554.6426">Competitor(name: String)</text><ellipse cx="399" cy="568.0234" fill="#84BE84" rx="3" ry="3" style="stroke:#038048;stroke-width:1.0;"/><text fill="#000000" font-family="sans-serif" font-size="14" lengthAdjust="spacing" textLength="111" x="408" y="572.252">getName(): String</text><ellipse cx="399" cy="585.6328" fill="#84BE84" rx="3" ry="3" style="stroke:#038048;stroke-width:1.0;"/><text fill="#000000" font-family="sans-serif" font-size="14" lengthAdjust="spacing" textLength="104" x="408" y="589.8613">toString(): String</text><ellipse cx="399" cy="603.2422" fill="#84BE84" rx="3" ry="3" style="stroke:#038048;stroke-width:1.0;"/><text fill="#000000" font-family="sans-serif" font-size="14" lengthAdjust="spacing" textLength="168" x="408" y="607.4707">equals(o: Object): boolean</text><ellipse cx="399" cy="620.8516" fill="#84BE84" rx="3" ry="3" style="stroke:#038048;stroke-width:1.0;"/><text fill="#000000" font-family="sans-serif" font-size="14" lengthAdjust="spacing" textLength="98" x="408" y="625.0801">hashCode(): int</text></g></a><!--MD5=[a4b4d324fd2684dbb9bd6a0eaf7882b2]
class Tournament--><a href="java:competition.Tournament" target="_top" title="java:competition.Tournament" xlink:actuate="onRequest" xlink:href="java:competition.Tournament" xlink:show="new" xlink:title="java:competition.Tournament" xlink:type="simple"><g id="elem_Tournament"><rect codeLine="54" fill="#F1F1F1" height="171.2656" id="Tournament" rx="2.5" ry="2.5" style="stroke:#181818;stroke-width:0.5;" width="434" x="617" y="470"/><ellipse cx="791.25" cy="486" fill="#ADD1B2" rx="11" ry="11" style="stroke:#181818;stroke-width:1.0;"/><path d="M794.0156,481.875 Q794.1719,481.6563 794.3594,481.5469 Q794.5469,481.4375 794.7656,481.4375 Q795.1406,481.4375 795.375,481.7031 Q795.6094,481.9531 795.6094,482.5625 L795.6094,484.0156 Q795.6094,484.625 795.375,484.8906 Q795.1406,485.1563 794.7656,485.1563 Q794.4219,485.1563 794.2188,484.9531 Q794.0156,484.7656 793.9063,484.25 Q793.8594,483.8906 793.6719,483.7031 Q793.3438,483.3281 792.7344,483.1094 Q792.125,482.8906 791.5,482.8906 Q790.7344,482.8906 790.0938,483.2188 Q789.4688,483.5469 788.9688,484.2969 Q788.4844,485.0469 788.4844,486.0781 L788.4844,487.1719 Q788.4844,488.4063 789.375,489.2344 Q790.2656,490.0469 791.8594,490.0469 Q792.7969,490.0469 793.4531,489.7969 Q793.8438,489.6406 794.2656,489.2031 Q794.5313,488.9375 794.6719,488.8594 Q794.8281,488.7813 795.0313,488.7813 Q795.3594,488.7813 795.6094,489.0469 Q795.875,489.2969 795.875,489.6406 Q795.875,489.9844 795.5313,490.3906 Q795.0313,490.9688 794.2344,491.2969 Q793.1563,491.75 791.8594,491.75 Q790.3438,491.75 789.1406,491.125 Q788.1563,490.625 787.4688,489.5625 Q786.7813,488.4844 786.7813,487.2031 L786.7813,486.0469 Q786.7813,484.7188 787.3906,483.5781 Q788.0156,482.4219 789.1094,481.8125 Q790.2031,481.1875 791.4375,481.1875 Q792.1719,481.1875 792.8125,481.3594 Q793.4688,481.5156 794.0156,481.875 Z " fill="#000000"/><text fill="#000000" font-family="sans-serif" font-size="14" lengthAdjust="spacing" textLength="77" x="811.75" y="491.7285">Tournament</text><line style="stroke:#181818;stroke-width:0.5;" x1="618" x2="1050" y1="502" y2="502"/><line style="stroke:#181818;stroke-width:0.5;" x1="618" x2="1050" y1="510" y2="510"/><ellipse cx="628" cy="524.3047" fill="#84BE84" rx="3" ry="3" style="stroke:#038048;stroke-width:1.0;"/><text fill="#000000" font-family="sans-serif" font-size="14" lengthAdjust="spacing" textLength="275" x="637" y="528.5332">Tournament(competitors: List&lt;Competitor&gt;)</text><ellipse cx="628" cy="541.9141" fill="#84BE84" rx="3" ry="3" style="stroke:#038048;stroke-width:1.0;"/><text fill="#000000" font-family="sans-serif" font-size="14" lengthAdjust="spacing" textLength="408" x="637" y="546.1426">playOneRound(competitors: List&lt;Competitor&gt;): List&lt;Competitor&gt;</text><ellipse cx="628" cy="559.5234" fill="#84BE84" rx="3" ry="3" style="stroke:#038048;stroke-width:1.0;"/><text fill="#000000" font-family="sans-serif" font-size="14" lengthAdjust="spacing" textLength="335" x="637" y="563.752">playTournament(competitors: List&lt;Competitor&gt;): void</text><ellipse cx="628" cy="577.1328" fill="#84BE84" rx="3" ry="3" style="stroke:#038048;stroke-width:1.0;"/><text fill="#000000" font-family="sans-serif" font-size="14" lengthAdjust="spacing" textLength="258" x="637" y="581.3613">play(competitors: List&lt;Competitor&gt;): void</text><ellipse cx="628" cy="594.7422" fill="#84BE84" rx="3" ry="3" style="stroke:#038048;stroke-width:1.0;"/><text fill="#000000" font-family="sans-serif" font-size="14" lengthAdjust="spacing" textLength="286" x="637" y="598.9707">playMatch(a: Competitor, b: Competitor): void</text><ellipse cx="628" cy="612.3516" fill="#84BE84" rx="3" ry="3" style="stroke:#038048;stroke-width:1.0;"/><text fill="#000000" font-family="sans-serif" font-size="14" lengthAdjust="spacing" text-decoration="underline" textLength="179" x="637" y="616.5801">powerOfTwo(n: int): boolean</text><ellipse cx="628" cy="629.9609" fill="#84BE84" rx="3" ry="3" style="stroke:#038048;stroke-width:1.0;"/><text fill="#000000" font-family="sans-serif" font-size="14" lengthAdjust="spacing" textLength="104" x="637" y="634.1895">toString(): String</text></g></a><!--MD5=[2c49ce20d23a464a33048f6e75573b7e]
class CompetitionMain--><a href="java:competition.CompetitionMain" target="_top" title="java:competition.CompetitionMain" xlink:actuate="onRequest" xlink:href="java:competition.CompetitionMain" xlink:show="new" xlink:title="java:competition.CompetitionMain" xlink:type="simple"><g id="elem_CompetitionMain"><rect codeLine="66" fill="#F1F1F1" height="65.6094" id="CompetitionMain" rx="2.5" ry="2.5" style="stroke:#181818;stroke-width:0.5;" width="181" x="1309.5" y="24.5"/><ellipse cx="1344.3" cy="40.5" fill="#ADD1B2" rx="11" ry="11" style="stroke:#181818;stroke-width:1.0;"/><path d="M1347.0656,36.375 Q1347.2219,36.1563 1347.4094,36.0469 Q1347.5969,35.9375 1347.8156,35.9375 Q1348.1906,35.9375 1348.425,36.2031 Q1348.6594,36.4531 1348.6594,37.0625 L1348.6594,38.5156 Q1348.6594,39.125 1348.425,39.3906 Q1348.1906,39.6563 1347.8156,39.6563 Q1347.4719,39.6563 1347.2688,39.4531 Q1347.0656,39.2656 1346.9563,38.75 Q1346.9094,38.3906 1346.7219,38.2031 Q1346.3938,37.8281 1345.7844,37.6094 Q1345.175,37.3906 1344.55,37.3906 Q1343.7844,37.3906 1343.1438,37.7188 Q1342.5188,38.0469 1342.0188,38.7969 Q1341.5344,39.5469 1341.5344,40.5781 L1341.5344,41.6719 Q1341.5344,42.9063 1342.425,43.7344 Q1343.3156,44.5469 1344.9094,44.5469 Q1345.8469,44.5469 1346.5031,44.2969 Q1346.8938,44.1406 1347.3156,43.7031 Q1347.5813,43.4375 1347.7219,43.3594 Q1347.8781,43.2813 1348.0813,43.2813 Q1348.4094,43.2813 1348.6594,43.5469 Q1348.925,43.7969 1348.925,44.1406 Q1348.925,44.4844 1348.5813,44.8906 Q1348.0813,45.4688 1347.2844,45.7969 Q1346.2063,46.25 1344.9094,46.25 Q1343.3938,46.25 1342.1906,45.625 Q1341.2063,45.125 1340.5188,44.0625 Q1339.8313,42.9844 1339.8313,41.7031 L1339.8313,40.5469 Q1339.8313,39.2188 1340.4406,38.0781 Q1341.0656,36.9219 1342.1594,36.3125 Q1343.2531,35.6875 1344.4875,35.6875 Q1345.2219,35.6875 1345.8625,35.8594 Q1346.5188,36.0156 1347.0656,36.375 Z " fill="#000000"/><text fill="#000000" font-family="sans-serif" font-size="14" lengthAdjust="spacing" textLength="105" x="1362.7" y="46.2285">CompetitionMain</text><line style="stroke:#181818;stroke-width:0.5;" x1="1310.5" x2="1489.5" y1="56.5" y2="56.5"/><line style="stroke:#181818;stroke-width:0.5;" x1="1310.5" x2="1489.5" y1="64.5" y2="64.5"/><ellipse cx="1320.5" cy="78.8047" fill="#84BE84" rx="3" ry="3" style="stroke:#038048;stroke-width:1.0;"/><text fill="#000000" font-family="sans-serif" font-size="14" lengthAdjust="spacing" text-decoration="underline" textLength="155" x="1329.5" y="83.0332">main(args: String[]): void</text></g></a><!--MD5=[546b859a3145ea980d4afabb7705f1e4]
link Match to Competition--><g id="link_Match_Competition"><path codeLine="11" d="M505.35,108.01 C496,116.78 487.8,126.77 482,138 C475.23,151.1 471.61,165.74 470.06,180.6 " fill="none" id="Match-to-Competition" style="stroke:#181818;stroke-width:1.0;"/><polygon fill="#181818" points="469.62,185.64,474.4006,177.0292,470.0624,180.6596,466.432,176.3214,469.62,185.64" style="stroke:#181818;stroke-width:1.0;"/><text fill="#000000" font-family="sans-serif" font-size="13" lengthAdjust="spacing" textLength="67" x="483" y="152.4951">competition</text><text fill="#000000" font-family="sans-serif" font-size="13" lengthAdjust="spacing" textLength="7" x="461.2925" y="175.3004">1</text></g><!--MD5=[1a7f86dbd2c5568deb82dd84cdef3900]
link Competition to Match--><g id="link_Competition_Match"><path codeLine="50" d="M540.54,185.85 C545.57,175.84 550.47,165.77 555,156 C561.41,142.18 567.79,126.99 573.47,112.81 " fill="none" id="Competition-to-Match" style="stroke:#181818;stroke-width:1.0;"/><polygon fill="#181818" points="575.37,108.04,568.3136,114.9107,573.513,112.6824,575.7414,117.8819,575.37,108.04" style="stroke:#181818;stroke-width:1.0;"/><text fill="#000000" font-family="sans-serif" font-size="13" lengthAdjust="spacing" textLength="36" x="564" y="152.4951">match</text><text fill="#000000" font-family="sans-serif" font-size="13" lengthAdjust="spacing" textLength="7" x="565.3963" y="129.4366">1</text></g><!--MD5=[dce288eb574a16597c30ae32ab9bfab5]
reverse link Exception to NotPowerOfTwoException--><g id="link_Exception_NotPowerOfTwoException"><path codeLine="17" d="M1228,101.9 C1228,146.75 1228,215.71 1228,255.89 " fill="none" id="Exception-backto-NotPowerOfTwoException" style="stroke:#181818;stroke-width:1.0;"/><polygon fill="none" points="1221,101.77,1228,81.77,1235,101.77,1221,101.77" style="stroke:#181818;stroke-width:1.0;"/></g><!--MD5=[b7765c32fbb01e013231a3e24fea478c]
reverse link Match to RandomMatch--><g id="link_Match_RandomMatch"><path codeLine="24" d="M668.27,120.93 C716.13,161.17 776.99,212.33 818.67,247.37 " fill="none" id="Match-backto-RandomMatch" style="stroke:#181818;stroke-width:1.0;"/><polygon fill="none" points="663.71,126.24,652.9,108.02,672.71,115.53,663.71,126.24" style="stroke:#181818;stroke-width:1.0;"/></g><!--MD5=[e44f78b39143424b70282cf2722237cc]
reverse link Competition to League--><g id="link_Competition_League"><path codeLine="33" d="M358.64,406.05 C324.57,437.34 289.16,469.86 260.2,496.46 " fill="none" id="Competition-backto-League" style="stroke:#181818;stroke-width:1.0;"/><polygon fill="none" points="354.19,400.64,373.65,392.26,363.66,410.95,354.19,400.64" style="stroke:#181818;stroke-width:1.0;"/></g><!--MD5=[e905eeb79ab5363f3743c4a08fba3695]
link Competition to Competitor--><g id="link_Competition_Competitor"><path codeLine="47" d="M427.83,392.12 C424.16,407.94 423.24,424.25 427,440 C429.69,451.28 433.69,462.71 438.35,473.76 " fill="none" id="Competition-to-Competitor" style="stroke:#181818;stroke-width:1.0;"/><polygon fill="#181818" points="440.39,478.47,440.4843,468.6216,438.4032,473.8817,433.1431,471.8005,440.39,478.47" style="stroke:#181818;stroke-width:1.0;"/><text fill="#000000" font-family="sans-serif" font-size="13" lengthAdjust="spacing" textLength="68" x="428" y="436.4951">competitors</text><text fill="#000000" font-family="sans-serif" font-size="13" lengthAdjust="spacing" textLength="5" x="430.7526" y="467.6292">*</text></g><!--MD5=[e905eeb79ab5363f3743c4a08fba3695]
link Competition to Competitor--><g id="link_Competition_Competitor"><path codeLine="53" d="M500.75,392.39 C501.8,408.31 502.07,424.59 501,440 C500.25,450.77 499.11,462.06 497.78,473.19 " fill="none" id="Competition-to-Competitor-1" style="stroke:#181818;stroke-width:1.0;"/><polygon fill="#181818" points="497.15,478.28,502.1996,469.8241,497.7491,473.316,494.2572,468.8656,497.15,478.28" style="stroke:#181818;stroke-width:1.0;"/><text fill="#000000" font-family="sans-serif" font-size="13" lengthAdjust="spacing" textLength="96" x="503" y="436.4951">getCompetitors()</text><text fill="#000000" font-family="sans-serif" font-size="13" lengthAdjust="spacing" textLength="5" x="493.0698" y="467.6857">*</text></g><!--MD5=[2bb81d131e8b3a038c7ebcc932cf6370]
reverse link Competition to Tournament--><g id="link_Competition_Tournament"><path codeLine="65" d="M635.93,404.39 C664.94,426.37 694.83,449.03 722.32,469.86 " fill="none" id="Competition-backto-Tournament" style="stroke:#181818;stroke-width:1.0;"/><polygon fill="none" points="631.64,409.92,619.93,392.26,640.1,398.76,631.64,409.92" style="stroke:#181818;stroke-width:1.0;"/></g><!--MD5=[fc88daa3bdd2a60e46b6671a9b1ab774]
@startuml
class MapUtil [[java:util.MapUtil]] {
	+{static} sortByDescendingValue(map: Map<K,V>): Map<K,V>
}
abstract class Match [[java:match.Match]] {
	+Match(competition: Competition)
	+playMatch(a: Competitor, b: Competitor): void
	+{abstract} chooseWinner(a: Competitor, b: Competitor): Competitor
}
class Competition {
}
Match - -> "1" Competition : competition
class NotPowerOfTwoException [[java:competition.NotPowerOfTwoException]] {
	+NotPowerOfTwoException(msg: String)
}
class Exception {
}
Exception <|- - NotPowerOfTwoException
class RandomMatch [[java:match.RandomMatch]] {
	+RandomMatch(competition: Competition)
	+chooseWinner(a: Competitor, b: Competitor): Competitor
}
class Match {
}
Match <|- - RandomMatch
class League [[java:competition.League]] {
	+League(competitors: List<Competitor>)
	+play(competitors: List<Competitor>): void
	+playMatch(a: Competitor, b: Competitor): void
	+toString(): String
}
class Competition {
}
Competition <|- - League
abstract class Competition [[java:competition.Competition]] {
	#points: Map<Competitor,Integer>
	+Competition(competitors: List<Competitor>)
	+getPoints(): Map<Competitor,Integer>
	+setMatch(match: Match): void
	+addPoints(competitor: Competitor): void
	+play(): void
	+ranking(): Map<Competitor,Integer>
	+{abstract} play(competitors: List<Competitor>): void
	+{abstract} playMatch(a: Competitor, b: Competitor): void
}
class Competitor {
}
Competition - -> "*" Competitor : competitors
class Match {
}
Competition - -> "1" Match : match
class Competitor {
}
Competition - -> "*" Competitor : getCompetitors()
class Tournament [[java:competition.Tournament]] {
	+Tournament(competitors: List<Competitor>)
	+playOneRound(competitors: List<Competitor>): List<Competitor>
	+playTournament(competitors: List<Competitor>): void
	+play(competitors: List<Competitor>): void
	+playMatch(a: Competitor, b: Competitor): void
	+{static} powerOfTwo(n: int): boolean
	+toString(): String
}
class Competition {
}
Competition <|- - Tournament
class CompetitionMain [[java:competition.CompetitionMain]] {
	+{static} main(args: String[]): void
}
class Competitor [[java:competitor.Competitor]] {
	-name: String
	+Competitor(name: String)
	+getName(): String
	+toString(): String
	+equals(o: Object): boolean
	+hashCode(): int
}

@enduml

PlantUML version 1.2022.7(Mon Aug 22 19:01:30 CEST 2022)
(EPL source distribution)
Java Runtime: Java(TM) SE Runtime Environment
JVM: Java HotSpot(TM) 64-Bit Server VM
Default Encoding: Cp1252
Language: fr
Country: FR
--></g></svg>